<svg width="70" height="70" viewBox="0 0 70 70" fill="none" xmlns="http://www.w3.org/2000/svg">
<path fill-rule="evenodd" clip-rule="evenodd" d="M5 0C2.23858 0 0 2.23858 0 5V65C0 67.7614 2.23858 70 5 70H65C67.7614 70 70 67.7614 70 65V5C70 2.23858 67.7614 0 65 0H5ZM55.2711 20.1606C54.5203 22.4585 53.0605 24.4593 51.1014 25.8756C52.3349 26.7672 53.378 27.8961 54.1694 29.1962C54.9608 30.4962 55.4847 31.9412 55.7103 33.4464C55.9359 34.9515 55.8587 36.4866 55.4832 37.9616C55.1077 39.4365 54.4415 40.8216 53.5236 42.0357C52.6057 43.2498 51.4546 44.2683 50.1379 45.0317C48.8212 45.795 47.3653 46.2877 45.8556 46.4809C44.3459 46.6742 42.8129 46.564 41.3463 46.1569C39.8798 45.7499 38.5093 45.0541 37.3152 44.1103V53.6574C37.3157 55.6151 36.8136 57.5402 35.857 59.2483C34.9005 60.9565 33.5214 62.3904 31.852 63.413C30.1825 64.4355 28.2785 65.0124 26.3223 65.0884C24.366 65.1643 22.423 64.7369 20.6793 63.8469C18.9355 62.9569 17.4495 61.6342 16.3633 60.0054C15.2771 58.3766 14.6273 56.4963 14.4759 54.5444C14.3246 52.5925 14.6768 50.6345 15.4989 48.8577C16.321 47.081 17.5854 45.545 19.1711 44.3968C17.7052 43.3382 16.5115 41.9467 15.6883 40.3367C14.8651 38.7268 14.4358 36.9444 14.4358 35.1362C14.4358 33.328 14.8651 31.5457 15.6883 29.9357C16.5114 28.3258 17.7051 26.9342 19.171 25.8756C17.2119 24.4593 15.7521 22.4585 15.0013 20.1606C14.2505 17.8628 14.2473 15.386 14.9922 13.0862C15.737 10.7864 17.1916 8.78189 19.1471 7.36053C21.1025 5.93917 23.4581 5.17415 25.8755 5.17533H44.3969C46.8143 5.17415 49.1699 5.93917 51.1254 7.36053C53.0808 8.78189 54.5354 10.7864 55.2803 13.0862C56.0251 15.386 56.0219 17.8628 55.2711 20.1606ZM49.404 21.6183C50.7304 20.2908 51.4765 18.4916 51.4786 16.615C51.4765 14.7375 50.7297 12.9375 49.4021 11.6098C48.0745 10.2822 46.2744 9.53544 44.3969 9.53331H37.3152V23.6965L44.3864 23.6967L44.3969 23.6965L44.4022 23.6966C46.2788 23.6931 48.0775 22.9457 49.404 21.6183ZM39.3925 40.1449C40.72 41.4718 42.52 42.2174 44.3969 42.2179C46.2738 42.2167 48.0735 41.4704 49.4005 40.143C50.7275 38.8156 51.4733 37.0157 51.474 35.1388C51.4747 33.2619 50.7302 31.4614 49.4042 30.1331C48.0781 28.8048 46.279 28.0572 44.4021 28.0546L44.3969 28.0547H44.3864C42.5095 28.058 40.7106 28.8062 39.3851 30.1351C38.0595 31.4639 37.3157 33.2646 37.3171 35.1415C37.3185 37.0185 38.065 38.8181 39.3925 40.1449Z" fill="url(#paint0_linear_136_14)"/>
<defs>
<linearGradient id="paint0_linear_136_14" x1="35" y1="0" x2="35" y2="70" gradientUnits="userSpaceOnUse">
<stop stop-color="white"/>
<stop offset="1" stop-color="white" stop-opacity="0.17"/>
</linearGradient>
</defs>
</svg>
