<svg width="70" height="70" viewBox="0 0 70 70" fill="none" xmlns="http://www.w3.org/2000/svg">
<rect width="70" height="70" rx="5" fill="url(#paint0_linear_59_32)"/>
<path d="M0 0H70V70H0V0Z" fill="url(#paint1_linear_59_32)"/>
<path d="M8.68738 32.5639L32.5648 8.68738C33.9388 7.31254 36.1692 7.31254 37.5452 8.68738L42.5031 13.6459L36.2135 19.9358C34.752 19.4417 33.0758 19.7731 31.9107 20.9382C30.7401 22.1107 30.4112 23.8011 30.917 25.2675L24.8555 31.3294C23.3888 30.8243 21.6967 31.1511 20.5253 32.3244C18.8885 33.9607 18.8885 36.613 20.5253 38.2503C22.1629 39.888 24.815 39.888 26.4534 38.2503C27.6847 37.0177 27.9888 35.2095 27.3654 33.6924L33.0184 28.0394L33.0189 42.9157C32.6092 43.1184 32.2349 43.3861 31.9107 43.7084C30.2736 45.3447 30.2736 47.997 31.9107 49.6357C33.548 51.2725 36.2015 51.2725 37.8366 49.6357C39.4737 47.997 39.4737 45.345 37.8366 43.7084C37.4443 43.3161 36.9782 43.0053 36.4651 42.7941V27.7791C36.979 27.5692 37.4454 27.2582 37.8366 26.8644C39.077 25.6257 39.3753 23.806 38.7395 22.283L44.9397 16.082L61.3121 32.4535C62.6877 33.8297 62.6877 36.0604 61.3121 37.4355L37.4344 61.3123C36.0598 62.6875 33.83 62.6875 32.4535 61.3123L8.68766 37.5465C7.31226 36.1706 7.31226 33.9391 8.68766 32.5639" fill="black"/>
<defs>
<linearGradient id="paint0_linear_59_32" x1="35" y1="0" x2="35" y2="70" gradientUnits="userSpaceOnUse">
<stop stop-color="white"/>
<stop offset="1" stop-color="white" stop-opacity="0.17"/>
</linearGradient>
<linearGradient id="paint1_linear_59_32" x1="35" y1="0" x2="35" y2="70" gradientUnits="userSpaceOnUse">
<stop stop-color="white"/>
<stop offset="1" stop-color="white" stop-opacity="0.17"/>
</linearGradient>
</defs>
</svg>
