<svg width="84" height="84" viewBox="0 0 84 84" fill="none" xmlns="http://www.w3.org/2000/svg">
<path d="M70.2857 6H13.7143C9.45536 6 6 9.45534 6 13.7143V70.2857C6 74.5447 9.45536 78 13.7143 78H70.2857C74.5446 78 78 74.5447 78 70.2857V13.7143C78 9.45534 74.5446 6 70.2857 6ZM45.1821 62.1536C45.1821 69.1607 41.0679 72.3589 35.0732 72.3589C29.6571 72.3589 26.5232 69.5625 24.9161 66.1714L30.4286 62.8447C31.4893 64.725 32.4536 66.3161 34.7839 66.3161C37.0018 66.3161 38.4161 65.4482 38.4161 62.0572V39.0589H45.1821V62.1536ZM61.1893 72.3589C54.9054 72.3589 50.8393 69.3697 48.8625 65.4482L54.375 62.2661C55.8214 64.6286 57.7179 66.3803 61.0446 66.3803C63.8411 66.3803 65.6411 64.9822 65.6411 63.0375C65.6411 60.7232 63.8089 59.9036 60.7071 58.5375L59.0196 57.8143C54.1339 55.7411 50.9036 53.1214 50.9036 47.6089C50.9036 42.5303 54.7768 38.6732 60.8036 38.6732C65.1107 38.6732 68.1964 40.1678 70.4143 44.0893L65.1429 47.4643C63.9857 45.3911 62.7321 44.5714 60.7875 44.5714C58.8107 44.5714 57.5571 45.825 57.5571 47.4643C57.5571 49.4893 58.8107 50.3089 61.7196 51.5786L63.4071 52.3018C69.1607 54.7607 72.3911 57.2839 72.3911 62.9411C72.3911 69.0161 67.6018 72.3589 61.1893 72.3589Z" fill="url(#paint0_linear_54_14)"/>
<defs>
<linearGradient id="paint0_linear_54_14" x1="42" y1="6" x2="42" y2="78" gradientUnits="userSpaceOnUse">
<stop stop-color="white"/>
<stop offset="1" stop-color="white" stop-opacity="0.19"/>
</linearGradient>
</defs>
</svg>
