<svg width="72" height="72" viewBox="0 0 72 72" fill="none" xmlns="http://www.w3.org/2000/svg">
<path d="M0 0H72V72H0V0Z" fill="url(#paint0_linear_59_25)"/>
<path d="M35.7182 68.6118C34.8193 68.6118 33.9803 68.3722 33.2016 67.9526L25.232 63.2188C24.0336 62.5599 24.633 62.3203 24.9924 62.2004C26.6102 61.661 26.9097 61.5412 28.5876 60.5824C28.7674 60.4626 29.007 60.5225 29.1867 60.6423L35.2985 64.2974C35.5385 64.4173 35.838 64.4173 36.0177 64.2974L59.9259 50.456C60.1656 50.3359 60.2856 50.0963 60.2856 49.7968V22.1732C60.2856 21.8737 60.1656 21.6341 59.9259 21.5143L36.0177 7.73244C35.7781 7.61263 35.4783 7.61263 35.2985 7.73244L11.3903 21.5143C11.1507 21.6341 11.0309 21.9336 11.0309 22.1732V49.7968C11.0309 50.0364 11.1507 50.3359 11.3903 50.456L17.9218 54.2309C21.4571 56.0284 23.6739 53.9311 23.6739 51.8341V24.57C23.6739 24.2106 23.9737 23.8512 24.3931 23.8512H27.4491C27.8086 23.8512 28.168 24.1507 28.168 24.57V51.8344C28.168 56.5681 25.5918 59.3244 21.0974 59.3244C19.7193 59.3244 18.6407 59.3244 15.5849 57.8264L9.29333 54.2312C7.73521 53.3323 6.77643 51.6547 6.77643 49.8569V22.2334C6.77643 20.4357 7.73521 18.758 9.29305 17.8591L33.2016 4.01741C34.6995 3.17844 36.7369 3.17844 38.2348 4.01741L62.143 17.8594C63.7009 18.7583 64.6596 20.4359 64.6596 22.2337V49.8569C64.6596 51.6547 63.7009 53.3323 62.143 54.2312L38.2348 68.0727C37.4557 68.4324 36.5569 68.6121 35.7182 68.6121V68.6118ZM43.0883 49.617C32.6022 49.617 30.445 44.8234 30.445 40.7487C30.445 40.3892 30.7446 40.0298 31.1642 40.0298H34.2799C34.6396 40.0298 34.9391 40.2694 34.9391 40.6288C35.4184 43.8047 36.7968 45.3626 43.1482 45.3626C48.1815 45.3626 50.3387 44.2241 50.3387 41.5277C50.3387 39.9699 49.7396 38.8314 41.8899 38.0523C35.3585 37.3931 31.284 35.955 31.284 30.7421C31.284 25.8885 35.3585 23.0122 42.1895 23.0122C49.8594 23.0122 53.6344 25.6486 54.1136 31.401C54.1136 31.5808 54.0537 31.7608 53.9339 31.9405C53.8141 32.0603 53.6344 32.1801 53.4546 32.1801H50.3387C50.0391 32.1801 49.7396 31.9405 49.6797 31.6409C48.9606 28.3453 47.1029 27.2667 42.1895 27.2667C36.677 27.2667 36.0177 29.1839 36.0177 30.6223C36.0177 32.3598 36.7968 32.8993 44.2268 33.8578C51.597 34.8165 55.0724 36.1947 55.0724 41.348C55.0125 46.6209 50.6981 49.617 43.0883 49.617V49.617Z" fill="black"/>
<defs>
<linearGradient id="paint0_linear_59_25" x1="36" y1="0" x2="36" y2="72" gradientUnits="userSpaceOnUse">
<stop stop-color="white"/>
<stop offset="1" stop-color="white" stop-opacity="0.17"/>
</linearGradient>
</defs>
</svg>
