<svg width="82" height="26" viewBox="0 0 82 26" fill="none" xmlns="http://www.w3.org/2000/svg">
<path d="M0 5C0 2.23858 2.23858 0 5 0H77C79.7614 0 82 2.23858 82 5V21C82 23.7614 79.7614 26 77 26H5C2.23858 26 0 23.7614 0 21V5Z" fill="white"/>
<path d="M34.656 21V19.614H35.916V21H34.656ZM40.3963 15.978V15.096H43.5643C44.3563 15.096 44.9923 14.952 45.4723 14.664C45.9523 14.376 46.3063 13.992 46.5343 13.512C46.7623 13.02 46.8763 12.48 46.8763 11.892C46.8763 11.304 46.7623 10.77 46.5343 10.29C46.3063 9.798 45.9523 9.408 45.4723 9.12C44.9923 8.832 44.3563 8.688 43.5643 8.688H40.3963V7.806H43.4383C44.4583 7.806 45.2923 7.986 45.9403 8.346C46.5883 8.694 47.0683 9.168 47.3803 9.768C47.6923 10.368 47.8483 11.04 47.8483 11.784V12C47.8483 12.732 47.6923 13.404 47.3803 14.016C47.0683 14.616 46.5883 15.096 45.9403 15.456C45.2923 15.804 44.4583 15.978 43.4383 15.978H40.3963ZM39.7663 21V7.806H40.7383V21H39.7663ZM51.5584 21.054V20.154H55.4464C56.4184 20.154 57.2584 19.998 57.9664 19.686C58.6864 19.374 59.2804 18.948 59.7484 18.408C60.2164 17.868 60.5644 17.256 60.7924 16.572C61.0324 15.876 61.1524 15.156 61.1524 14.412C61.1524 13.632 61.0324 12.9 60.7924 12.216C60.5644 11.532 60.2104 10.926 59.7304 10.398C59.2504 9.87 58.6564 9.456 57.9484 9.156C57.2404 8.856 56.4064 8.706 55.4464 8.706H51.5584V7.806H55.3384C56.5024 7.806 57.5104 7.992 58.3624 8.364C59.2144 8.724 59.9164 9.21 60.4684 9.822C61.0324 10.434 61.4524 11.124 61.7284 11.892C62.0044 12.66 62.1424 13.452 62.1424 14.268V14.556C62.1424 15.336 62.0104 16.116 61.7464 16.896C61.4824 17.664 61.0684 18.36 60.5044 18.984C59.9524 19.608 59.2504 20.112 58.3984 20.496C57.5464 20.868 56.5264 21.054 55.3384 21.054H51.5584ZM50.9284 21.054V7.806H51.9004V21.054H50.9284ZM65.3249 21V7.86H66.2969V21H65.3249ZM65.9549 14.736V13.836L71.9489 13.818V14.7L65.9549 14.736ZM65.9549 8.742V7.86L72.3089 7.842V8.742H65.9549Z" fill="black"/>
<path d="M17.7083 15.484L21.5103 12.0753C21.7462 11.8638 22.1288 11.8638 22.3647 12.0753C22.6007 12.2869 22.6007 12.6298 22.3647 12.8414L17.5314 17.1747C17.2954 17.3862 16.9129 17.3862 16.677 17.1747L11.8436 12.8414C11.6077 12.6298 11.6077 12.2869 11.8436 12.0753C12.0796 11.8638 12.4621 11.8638 12.698 12.0753L16.5 15.484V3.79167C16.5 3.49251 16.7705 3.25 17.1042 3.25C17.4378 3.25 17.7083 3.49251 17.7083 3.79167V15.484ZM26.1667 16.7917C26.1667 16.4925 26.4372 16.25 26.7708 16.25C27.1045 16.25 27.375 16.4925 27.375 16.7917V20.0417C27.375 21.5374 26.0225 22.75 24.3542 22.75H9.85417C8.18581 22.75 6.83334 21.5374 6.83334 20.0417V16.7917C6.83334 16.4925 7.10383 16.25 7.4375 16.25C7.77118 16.25 8.04167 16.4925 8.04167 16.7917V20.0417C8.04167 20.9391 8.85315 21.6667 9.85417 21.6667H24.3542C25.3552 21.6667 26.1667 20.9391 26.1667 20.0417V16.7917Z" fill="black"/>
</svg>
